<?xml version="1.0" standalone="no"?>
<!DOCTYPE svg PUBLIC "-//W3C//DTD SVG 1.1//EN" "http://www.w3.org/Graphics/SVG/1.1/DTD/svg11.dtd">
<svg width="1204" height="1204" version="1.1" xmlns="http://www.w3.org/2000/svg">
  <title>75 by 75 orthogonal maze</title>
  <desc>75 by 75 orthogonal maze generated by The Maze Generator Website (http://www.mazegenerator.net/).</desc>
  <g fill="none" stroke="#000000" stroke-width="2" stroke-linecap="square" stroke-linejoin="round">
    <polyline points="602,2 602,10 554,10 554,58 538,58 538,10 522,10 522,26 506,26 506,58 474,58 474,90 458,90 458,106 474,106 474,138 490,138 490,154 506,154 506,186 474,186 474,250 442,250 442,266 458,266 458,282 426,282 426,298 442,298 442,314 394,314 394,330 426,330 426,362 394,362 394,410 378,410 378,458 426,458 426,442 442,442 442,426 458,426 458,442 506,442 506,426 538,426 538,442 554,442 554,458 570,458 570,426 554,426 554,394 570,394 570,410 602,410 602,426 586,426 586,442 602,442 602,458 586,458 586,474 570,474 570,506 602,506 602,522 586,522 586,538 570,538 570,554 538,554 538,522 522,522 522,570 490,570 490,602 506,602 506,586 522,586 522,602 538,602 538,618 506,618 506,634 538,634 538,650 490,650 490,634 474,634 474,666 458,666 458,746 394,746 394,714 378,714 378,778 346,778 346,762 330,762 330,746 314,746 314,762 298,762 298,778 282,778 282,810 250,810 250,794 266,794 266,778 234,778 234,826 218,826 218,842 266,842 266,858 282,858 282,874 250,874 250,858 234,858 234,890 266,890 266,938 250,938 250,906 218,906 218,890 202,890 202,874 170,874 170,858 202,858 202,810 218,810 218,746 202,746 202,730 154,730 154,714 138,714 138,730 106,730 106,746 138,746 138,842 122,842 122,810 106,810 106,858 74,858 74,922 58,922 58,938 74,938 74,954 58,954 58,970 90,970 90,906 106,906 106,890 90,890 90,874 122,874 122,922 106,922 106,938 122,938 122,954 138,954 138,986 58,986 58,1018 74,1018 74,1050 90,1050 90,1066 122,1066 122,1082 138,1082 138,1098 106,1098 106,1114 154,1114 154,1098 170,1098 170,1082 186,1082 186,1098 218,1098 218,1082 250,1082 250,1066 298,1066 298,1082 330,1082 330,1066 346,1066 346,1082 362,1082 362,1050 378,1050 378,1098 346,1098 346,1114 378,1114 378,1130 394,1130 394,1114 410,1114 410,1130 442,1130 442,1146 426,1146 426,1194 442,1194 442,1162 458,1162 458,1130 474,1130 474,1114 506,1114 506,1146 538,1146 538,1194 602,1194 602,1202" />
    <polyline points="586,1194 586,1178" />
    <polyline points="570,1194 570,1162 554,1162 554,1178" />
    <polyline points="554,1162 554,1050" />
    <polyline points="554,1082 570,1082 570,1130 586,1130 586,1114 602,1114 602,1178 682,1178 682,1194 746,1194 746,1162 730,1162 730,1178 714,1178 714,1146 746,1146 746,1114 730,1114" />
    <polyline points="730,1146 730,1130 714,1130 714,1098 698,1098 698,1082 714,1082 714,1050 730,1050 730,1018 746,1018 746,986 730,986 730,970 762,970 762,1018 794,1018 794,1034 842,1034 842,1050 858,1050 858,970 874,970 874,938 842,938 842,1018" />
    <polyline points="842,986 826,986 826,1018 810,1018" />
    <polyline points="826,986 826,970 810,970 810,1002 794,1002 794,970 778,970 778,954 714,954 714,1002 730,1002" />
    <polyline points="778,954 826,954 826,938 810,938 810,890 794,890 794,922 778,922 778,938 794,938" />
    <polyline points="778,938 698,938 698,906 682,906 682,890 618,890 618,906 666,906 666,922 682,922 682,938 650,938 650,922 586,922 586,890 570,890 570,906 554,906 554,890 538,890 538,842 586,842 586,810" />
    <polyline points="586,826 538,826" />
    <polyline points="554,826 554,810 570,810 570,778 602,778" />
    <polyline points="586,778 586,794 618,794 618,762 554,762" />
    <polyline points="538,874 570,874 570,858 634,858 634,842 682,842 682,810 666,810 666,794 634,794 634,810 602,810 602,842 618,842 618,826 666,826" />
    <polyline points="650,794 650,810" />
    <polyline points="682,810 698,810 698,858 714,858 714,826" />
    <polyline points="714,858 714,874 730,874 730,858 762,858 762,842 730,842 730,826 746,826 746,794 714,794 714,810 730,810" />
    <polyline points="714,794 714,762 698,762 698,794 682,794 682,778 634,778 634,762 682,762" />
    <polyline points="650,762 650,730 618,730 618,746 634,746" />
    <polyline points="618,730 618,714 586,714 586,730" />
    <polyline points="602,714 602,746 554,746 554,730 570,730 570,714 554,714 554,698 618,698 618,666 554,666 554,682 602,682" />
    <polyline points="586,666 586,650 570,650 570,618 554,618 554,570 538,570 538,586" />
    <polyline points="554,570 570,570 570,602 618,602" />
    <polyline points="602,602 602,586 618,586 618,570 602,570 602,538 618,538 618,554 634,554 634,570 698,570 698,586 682,586" />
    <polyline points="666,570 666,586 634,586 634,602 698,602" />
    <polyline points="682,602 682,618 650,618 650,666" />
    <polyline points="650,650 666,650 666,634 682,634 682,666 666,666 666,698 682,698" />
    <polyline points="666,682 698,682 698,650 714,650 714,634 698,634 698,618 714,618 714,570 746,570 746,554 730,554 730,538 714,538 714,554 650,554 650,538 634,538" />
    <polyline points="666,554 666,522 618,522 618,506" />
    <polyline points="634,522 634,506 650,506 650,490 666,490 666,506" />
    <polyline points="666,522 682,522 682,538 698,538 698,506 682,506 682,490 730,490 730,474 746,474 746,490" />
    <polyline points="714,490 714,474 682,474 682,458 666,458 666,474 650,474 650,458 634,458 634,442" />
    <polyline points="698,474 698,458 714,458 714,442 682,442 682,378 666,378 666,394" />
    <polyline points="682,410 666,410 666,442 650,442 650,378 634,378 634,314 666,314 666,298 650,298 650,282 618,282 618,250 602,250 602,218 586,218" />
    <polyline points="602,218 618,218 618,234 634,234 634,218 650,218 650,234 698,234 698,282 762,282 762,266 794,266" />
    <polyline points="778,266 778,282 794,282 794,298 810,298 810,266 826,266 826,314 874,314 874,330 986,330 986,298 1002,298 1002,314 1018,314 1018,298 1034,298 1034,330 1050,330 1050,314 1066,314 1066,298 1050,298 1050,282 1002,282 1002,266 1034,266 1034,250 1050,250 1050,266 1082,266 1082,282 1066,282" />
    <polyline points="1018,266 1018,250 970,250 970,266 986,266 986,282 970,282 970,298 954,298 954,314 970,314" />
    <polyline points="954,314 890,314 890,282" />
    <polyline points="906,314 906,266 842,266 842,250 874,250 874,234 778,234 778,218 746,218" />
    <polyline points="794,234 794,202 826,202 826,186 794,186" />
    <polyline points="810,202 810,218 842,218 842,170 826,170 826,154 810,154 810,170 794,170 794,154 762,154" />
    <polyline points="778,154 778,122 842,122 842,90 858,90 858,106 874,106 874,90 890,90 890,74 858,74 858,42" />
    <polyline points="858,58 890,58 890,42 874,42 874,26 858,26 858,10 842,10 842,74" />
    <polyline points="874,26 922,26" />
    <polyline points="906,26 906,58" />
    <polyline points="826,122 826,138 794,138" />
    <polyline points="858,234 858,170 874,170 874,154 842,154 842,138 858,138 858,122 890,122 890,106 906,106 906,74 922,74 922,42 938,42 938,10 874,10" />
    <polyline points="938,42 938,58 970,58 970,74 1002,74" />
    <polyline points="986,74 986,58" />
    <polyline points="954,58 954,106" />
    <polyline points="954,90 922,90 922,106 938,106 938,122 954,122 954,170 938,170" />
    <polyline points="954,154 938,154 938,138 922,138 922,122 906,122 906,154 922,154 922,202 906,202" />
    <polyline points="922,186 890,186 890,138 874,138" />
    <polyline points="890,170 906,170" />
    <polyline points="938,90 938,74" />
    <polyline points="874,170 874,202 890,202 890,218 906,218 906,234 890,234 890,250 922,250 922,266 938,266 938,250 954,250 954,282 922,282 922,298 938,298" />
    <polyline points="890,218 874,218" />
    <polyline points="842,314 842,298 874,298 874,282 842,282" />
    <polyline points="746,282 746,250 826,250" />
    <polyline points="762,250 762,234 714,234 714,250 730,250 730,266 714,266" />
    <polyline points="714,282 714,298 746,298 746,346 682,346 682,362 666,362 666,330 650,330 650,362" />
    <polyline points="666,330 698,330 698,314 682,314 682,298 698,298" />
    <polyline points="730,298 730,314 714,314 714,330 730,330" />
    <polyline points="634,234 634,250 650,250 650,266 666,266 666,250 682,250 682,282 666,282" />
    <polyline points="602,234 586,234 586,250 554,250 554,234 570,234 570,202 586,202 586,170 570,170 570,186 554,186 554,218" />
    <polyline points="554,202 538,202 538,218 522,218 522,170 554,170 554,154 570,154 570,138 586,138 586,154 618,154 618,186 602,186 602,202 666,202 666,218 682,218 682,186 714,186 714,218 730,218 730,202 746,202 746,186 762,186 762,202 778,202 778,170 746,170 746,154 730,154 730,186" />
    <polyline points="698,186 698,218" />
    <polyline points="602,186 602,170" />
    <polyline points="538,170 538,186" />
    <polyline points="522,202 490,202 490,218" />
    <polyline points="506,202 506,234 538,234 538,282 554,282 554,298 538,298 538,314 570,314 570,298 586,298 586,314 618,314" />
    <polyline points="522,234 522,250 506,250 506,266 522,266" />
    <polyline points="506,234 490,234 490,266 474,266 474,298 490,298 490,282" />
    <polyline points="474,298 458,298 458,314 474,314 474,330 442,330 442,346 458,346" />
    <polyline points="570,250 570,282" />
    <polyline points="570,266 554,266" />
    <polyline points="618,266 586,266 586,282 602,282 602,298 634,298" />
    <polyline points="634,282 634,266" />
    <polyline points="698,506 778,506 778,522 714,522" />
    <polyline points="746,522 746,538 778,538 778,554 762,554" />
    <polyline points="730,570 730,586 746,586 746,602 778,602 778,586 762,586 762,570 794,570 794,506 842,506 842,522 858,522 858,458 874,458 874,442 890,442" />
    <polyline points="858,474 874,474 874,490 890,490 890,506 874,506 874,538 842,538 842,554 906,554 906,538 890,538 890,522 906,522 906,506 922,506 922,474 890,474 890,458 938,458" />
    <polyline points="906,474 906,490" />
    <polyline points="922,506 922,538 938,538 938,554 922,554 922,570 890,570 890,586 906,586 906,602 970,602 970,618 954,618 954,634 938,634 938,618 890,618 890,602 874,602 874,618 858,618 858,634 890,634" />
    <polyline points="858,634 842,634 842,618 826,618 826,634 778,634" />
    <polyline points="810,634 810,650 874,650 874,682 906,682 906,666 938,666 938,650 970,650 970,634 1018,634 1018,618 986,618 986,586 970,586" />
    <polyline points="922,618 922,650" />
    <polyline points="922,634 906,634 906,650 890,650 890,666" />
    <polyline points="954,602 954,570 938,570 938,586 922,586" />
    <polyline points="874,554 874,586" />
    <polyline points="858,474 842,474 842,442 858,442 858,426 874,426 874,410 762,410 762,362 746,362 746,410 698,410 698,426 730,426 730,458 762,458 762,490 778,490 778,458 826,458 826,442 810,442" />
    <polyline points="826,458 826,474" />
    <polyline points="794,458 794,442 762,442 762,426 746,426 746,442" />
    <polyline points="762,426 842,426" />
    <polyline points="714,410 714,394 730,394 730,362 698,362" />
    <polyline points="714,362 714,378 698,378 698,394" />
    <polyline points="858,490 810,490 810,474 794,474 794,490" />
    <polyline points="794,538 810,538 810,522 826,522 826,554 810,554" />
    <polyline points="698,682 698,714 634,714 634,698 650,698 650,682 634,682 634,650 602,650 602,618 586,618 586,634" />
    <polyline points="602,634 618,634 618,618 634,618 634,634" />
    <polyline points="650,746 698,746 698,730 746,730 746,698 794,698 794,682 810,682 810,714 794,714 794,730 778,730 778,714 762,714 762,746 714,746" />
    <polyline points="746,714 714,714" />
    <polyline points="730,714 730,698 714,698 714,666 762,666 762,650 730,650 730,602" />
    <polyline points="746,650 746,634 762,634 762,618 746,618" />
    <polyline points="762,618 810,618 810,602 794,602 794,586 810,586 810,570 826,570 826,602 858,602 858,570 842,570 842,586" />
    <polyline points="746,666 746,682 778,682 778,650 794,650 794,666 826,666 826,714" />
    <polyline points="746,682 730,682" />
    <polyline points="666,746 666,730 682,730" />
    <polyline points="698,858 682,858" />
    <polyline points="618,858 618,874 650,874 650,858 666,858 666,874 698,874 698,890 730,890 730,906 746,906 746,922 762,922 762,890 746,890 746,874 778,874 778,906" />
    <polyline points="746,922 730,922" />
    <polyline points="554,874 554,858" />
    <polyline points="586,906 602,906 602,874 586,874" />
    <polyline points="666,938 666,954 634,954 634,938 586,938" />
    <polyline points="698,922 714,922 714,906" />
    <polyline points="842,954 858,954" />
    <polyline points="842,938 842,922 826,922" />
    <polyline points="858,1018 874,1018 874,1050 890,1050 890,1098 874,1098 874,1066 842,1066 842,1082 858,1082 858,1114 890,1114 890,1130 922,1130" />
    <polyline points="906,1130 906,1082" />
    <polyline points="874,1114 874,1130 858,1130 858,1162 826,1162 826,1194 922,1194 922,1178 938,1178 938,1194 970,1194 970,1178 954,1178" />
    <polyline points="890,1194 890,1178 906,1178 906,1146 922,1146 922,1162 938,1162 938,1114 922,1114 922,1082 938,1082 938,1066 954,1066 954,1050 906,1050 906,1066 922,1066" />
    <polyline points="922,1050 922,1034 906,1034 906,1018 922,1018 922,1002 938,1002 938,970 954,970" />
    <polyline points="938,986 922,986 922,954" />
    <polyline points="922,970 906,970" />
    <polyline points="938,1002 938,1034 954,1034 954,1018 970,1018 970,986 954,986 954,1002" />
    <polyline points="970,1002 986,1002 986,1018" />
    <polyline points="954,1050 970,1050 970,1034 986,1034 986,1066 970,1066 970,1082 954,1082 954,1114" />
    <polyline points="938,1082 938,1098" />
    <polyline points="938,1146 1002,1146 1002,1162 1018,1162 1018,1178 1050,1178 1050,1130 1034,1130 1034,1114 1066,1114" />
    <polyline points="1050,1146 1066,1146 1066,1130 1082,1130 1082,1098 1034,1098 1034,1050" />
    <polyline points="1034,1066 1002,1066 1002,1082 1018,1082 1018,1114 986,1114 986,1130" />
    <polyline points="1002,1114 1002,1130 1018,1130 1018,1146 1034,1146 1034,1162" />
    <polyline points="1002,1082 986,1082" />
    <polyline points="1018,1066 1018,1050 1002,1050 1002,1034 1050,1034 1050,1002 1082,1002 1082,1018 1114,1018 1114,1002 1098,1002 1098,986 1114,986 1114,922 1082,922 1082,938 1066,938 1066,922 1050,922 1050,906 1018,906 1018,970 1002,970 1002,874 1050,874 1050,858 1034,858 1034,842 1018,842 1018,858 1002,858 1002,826 1018,826 1018,778 1034,778 1034,714 1082,714 1082,730 1098,730 1098,698 1082,698" />
    <polyline points="1066,714 1066,746 1114,746 1114,762 1146,762 1146,778 1066,778 1066,794 1082,794 1082,810 1050,810 1050,842 1066,842 1066,858 1098,858 1098,874 1066,874 1066,906 1098,906 1098,890 1130,890 1130,858 1114,858 1114,874" />
    <polyline points="1130,874 1146,874 1146,906" />
    <polyline points="1146,890 1162,890 1162,858 1146,858 1146,826 1162,826 1162,810 1130,810 1130,842 1082,842" />
    <polyline points="1114,842 1114,810 1098,810 1098,794 1162,794 1162,762 1194,762 1194,714 1178,714 1178,698 1194,698 1194,650 1162,650 1162,682 1146,682 1146,730 1114,730" />
    <polyline points="1130,730 1130,746 1146,746" />
    <polyline points="1146,714 1162,714 1162,698" />
    <polyline points="1162,714 1162,746 1178,746 1178,730" />
    <polyline points="1146,682 1146,666" />
    <polyline points="1178,650 1178,682" />
    <polyline points="1162,778 1194,778 1194,794 1178,794 1178,890 1194,890 1194,842" />
    <polyline points="1178,826 1194,826 1194,810" />
    <polyline points="1114,826 1066,826" />
    <polyline points="1162,826 1162,842" />
    <polyline points="1066,890 1018,890" />
    <polyline points="1066,890 1082,890" />
    <polyline points="1050,714 1050,762 1098,762" />
    <polyline points="1034,730 1018,730 1018,746 1002,746 1002,778 986,778 986,794 1002,794 1002,810 954,810" />
    <polyline points="1034,762 1018,762" />
    <polyline points="1018,810 1034,810 1034,794 1050,794 1050,778" />
    <polyline points="1034,810 1034,826" />
    <polyline points="1002,890 970,890 970,874 986,874 986,858 970,858 970,842 986,842 986,826 954,826 954,842 938,842 938,858 906,858 906,874 938,874 938,890 954,890 954,858" />
    <polyline points="954,890 954,906 922,906 922,890 906,890 906,922 922,922 922,938 906,938 906,954 890,954 890,986 906,986 906,1002" />
    <polyline points="890,986 874,986 874,1002 890,1002 890,1034" />
    <polyline points="906,858 906,826 938,826 938,794 970,794 970,714" />
    <polyline points="970,746 986,746 986,762" />
    <polyline points="970,762 954,762 954,778 906,778" />
    <polyline points="954,762 954,714 938,714 938,682 922,682" />
    <polyline points="938,698 954,698 954,666 970,666 970,698 986,698 986,730 1002,730 1002,714 1018,714 1018,698 1002,698" />
    <polyline points="1018,698 1066,698 1066,666 1082,666 1082,682 1098,682 1098,650 1114,650 1114,618 1098,618 1098,634 1082,634 1082,650 1066,650 1066,618 1034,618 1034,602 1050,602 1050,570 1034,570 1034,586 1018,586 1018,602 1002,602 1002,570 970,570 970,554 954,554 954,538 986,538 986,522 938,522 938,506 986,506 986,490 938,490 938,474 954,474 954,458 986,458 986,442 906,442 906,426 890,426 890,394 842,394 842,362 826,362 826,394 810,394 810,378 794,378 794,394 778,394 778,298 762,298 762,346" />
    <polyline points="842,378 858,378 858,362 874,362 874,346 858,346 858,330 842,330 842,346 810,346 810,362 794,362 794,314 810,314 810,330 826,330" />
    <polyline points="874,394 874,378 906,378 906,362 890,362 890,346 938,346" />
    <polyline points="922,346 922,362 954,362 954,346 970,346 970,362 986,362 986,346" />
    <polyline points="970,442 970,426 922,426 922,410 906,410 906,394 922,394 922,378 954,378 954,394 938,394 938,410 986,410 986,394 1002,394 1002,330 1018,330 1018,362 1034,362 1034,346 1050,346 1050,362 1066,362 1066,346 1130,346 1130,362" />
    <polyline points="1098,346 1098,298 1082,298 1082,330 1066,330" />
    <polyline points="1098,330 1114,330 1114,314" />
    <polyline points="1002,378 1050,378 1050,394 1018,394" />
    <polyline points="1002,378 970,378 970,394" />
    <polyline points="986,442 1002,442 1002,410 1050,410 1050,426 1066,426 1066,378 1114,378 1114,362 1082,362" />
    <polyline points="1066,394 1098,394 1098,410 1130,410 1130,378 1146,378 1146,330 1130,330 1130,314 1146,314 1146,298 1114,298 1114,282 1098,282 1098,266 1114,266 1114,234 1146,234 1146,218 1114,218 1114,186 1098,186 1098,250 1066,250 1066,234 1018,234 1018,218 1002,218 1002,234 986,234 986,218 970,218 970,234 922,234 922,218" />
    <polyline points="938,234 938,186 954,186 954,218" />
    <polyline points="954,202 1018,202 1018,186" />
    <polyline points="986,202 986,186 970,186" />
    <polyline points="986,186 1002,186 1002,170 970,170 970,138 1018,138 1018,122 1002,122" />
    <polyline points="1018,122 1034,122 1034,90 970,90 970,122 986,122 986,106 1018,106" />
    <polyline points="986,138 986,154 1018,154 1018,170 1034,170 1034,186 1050,186 1050,138 1034,138 1034,154" />
    <polyline points="1034,234 1034,218 1066,218 1066,122 1082,122 1082,74 1098,74 1098,58" />
    <polyline points="1098,74 1098,122 1130,122 1130,138 1082,138 1082,154 1098,154" />
    <polyline points="1114,138 1114,170 1082,170 1082,234" />
    <polyline points="1098,90 1130,90 1130,106 1114,106" />
    <polyline points="1082,90 1050,90 1050,74 1018,74 1018,58 1002,58 1002,42 1018,42 1018,26 954,26 954,10 1050,10 1050,26 1066,26 1066,42" />
    <polyline points="986,26 986,42 954,42" />
    <polyline points="1018,26 1034,26" />
    <polyline points="1018,58 1034,58 1034,42 1050,42 1050,58 1082,58 1082,10 1066,10" />
    <polyline points="1082,42 1114,42 1114,74 1146,74 1146,42 1130,42 1130,58" />
    <polyline points="1050,74 1066,74" />
    <polyline points="1066,90 1066,106 1050,106 1050,122" />
    <polyline points="1050,218 1050,202 1034,202" />
    <polyline points="1146,218 1162,218 1162,202" />
    <polyline points="1130,298 1130,250 1146,250 1146,266 1162,266 1162,234 1194,234 1194,218" />
    <polyline points="1178,234 1178,202 1194,202 1194,186 1178,186 1178,154 1130,154 1130,202 1146,202 1146,186 1162,186 1162,170 1146,170" />
    <polyline points="1178,170 1194,170 1194,138 1146,138 1146,122 1194,122" />
    <polyline points="1178,122 1178,106 1194,106 1194,90" />
    <polyline points="1162,122 1162,106 1146,106 1146,90 1178,90 1178,74 1194,74 1194,58 1162,58 1162,74" />
    <polyline points="1162,58 1162,10 1098,10 1098,26 1146,26" />
    <polyline points="1162,10 1194,10 1194,26 1178,26 1178,42 1194,42" />
    <polyline points="1146,378 1146,394 1162,394" />
    <polyline points="1130,394 1114,394" />
    <polyline points="1050,426 1034,426 1034,442 1066,442 1066,458 1082,458 1082,410" />
    <polyline points="1082,458 1082,538 1066,538 1066,474 1002,474 1002,458" />
    <polyline points="1050,474 1050,458 1018,458 1018,426" />
    <polyline points="1050,474 1050,522 1034,522 1034,538 1050,538 1050,554 1018,554 1018,570" />
    <polyline points="1050,506 1018,506 1018,490 1002,490 1002,554 986,554" />
    <polyline points="1002,538 1018,538 1018,522" />
    <polyline points="1018,490 1034,490" />
    <polyline points="1082,490 1098,490 1098,426 1130,426 1130,442 1194,442 1194,522 1162,522 1162,538" />
    <polyline points="1178,522 1178,538 1194,538 1194,602 1178,602 1178,618 1194,618 1194,634 1162,634 1162,618 1146,618 1146,650 1130,650 1130,682 1114,682 1114,714 1130,714 1130,698" />
    <polyline points="1114,682 1114,666" />
    <polyline points="1194,586 1178,586" />
    <polyline points="1178,442 1178,426 1194,426 1194,410 1146,410 1146,426 1162,426" />
    <polyline points="1178,410 1178,394 1194,394 1194,378 1162,378 1162,362 1178,362 1178,346 1162,346 1162,314 1194,314 1194,250 1178,250" />
    <polyline points="1194,266 1178,266 1178,298 1162,298 1162,282 1146,282" />
    <polyline points="1178,314 1178,330 1194,330 1194,362" />
    <polyline points="1162,442 1162,458 1178,458 1178,474 1146,474 1146,490 1130,490 1130,458 1146,458" />
    <polyline points="1130,442 1114,442" />
    <polyline points="1098,458 1114,458 1114,506 1130,506 1130,522 1114,522" />
    <polyline points="1114,506 1098,506 1098,570" />
    <polyline points="1098,554 1114,554 1114,538 1146,538 1146,506 1178,506 1178,490 1162,490" />
    <polyline points="1146,538 1146,554 1178,554 1178,570 1162,570 1162,602 1146,602 1146,570" />
    <polyline points="1146,554 1130,554 1130,570 1114,570 1114,602" />
    <polyline points="1114,586 1098,586 1098,602 1066,602 1066,586 1082,586 1082,554 1066,554 1066,570" />
    <polyline points="1082,602 1082,618" />
    <polyline points="1114,586 1130,586 1130,634" />
    <polyline points="1002,426 986,426" />
    <polyline points="986,458 986,474 970,474" />
    <polyline points="1050,698 1050,682 986,682 986,650 1018,650 1018,666 1034,666 1034,634 1050,634 1050,666" />
    <polyline points="1002,682 1002,666" />
    <polyline points="954,730 922,730 922,698 874,698" />
    <polyline points="906,698 906,730 890,730 890,714 874,714 874,730 858,730 858,746 890,746" />
    <polyline points="874,746 874,762 810,762 810,730 826,730 826,746 842,746 842,666 858,666 858,714" />
    <polyline points="810,746 794,746 794,762 778,762 778,746" />
    <polyline points="858,762 858,826 890,826 890,810 874,810" />
    <polyline points="890,810 922,810 922,794 874,794 874,778 890,778 890,762 906,762 906,746 922,746 922,762 938,762 938,746" />
    <polyline points="858,810 810,810 810,794 842,794 842,778 794,778 794,810 762,810 762,826 810,826 810,842 826,842 826,826" />
    <polyline points="778,826 778,858 794,858 794,842" />
    <polyline points="794,858 794,874 810,874 810,858" />
    <polyline points="762,810 762,794 778,794 778,778 762,778 762,762 730,762 730,778 746,778" />
    <polyline points="842,810 842,858 826,858 826,874 858,874 858,890 874,890 874,858 858,858 858,842 890,842 890,906 858,906 858,922 890,922 890,938" />
    <polyline points="858,890 842,890 842,906 826,906 826,890" />
    <polyline points="922,858 922,842" />
    <polyline points="1018,922 1034,922 1034,1018 1002,1018 1002,1002 1018,1002 1018,986 986,986 986,970 970,970 970,954 986,954 986,906 970,906 970,938 954,938 954,954 938,954 938,922 954,922" />
    <polyline points="1034,986 1050,986 1050,970 1066,970 1066,986 1082,986 1082,970 1098,970" />
    <polyline points="1034,938 1050,938 1050,954 1098,954 1098,938" />
    <polyline points="1114,938 1146,938 1146,970 1162,970 1162,938 1178,938 1178,986 1194,986 1194,1082 1178,1082 1178,1114 1162,1114 1162,1130 1194,1130 1194,1098" />
    <polyline points="1162,1114 1162,1098 1114,1098" />
    <polyline points="1146,1098 1146,1194 1194,1194 1194,1146 1162,1146" />
    <polyline points="1194,1178 1178,1178 1178,1162 1162,1162 1162,1178" />
    <polyline points="1178,986 1162,986 1162,1034 1146,1034 1146,1050 1130,1050 1130,1082" />
    <polyline points="1130,1066 1146,1066 1146,1082 1162,1082 1162,1050 1178,1050 1178,1002" />
    <polyline points="1162,1066 1178,1066" />
    <polyline points="1162,1018 1146,1018" />
    <polyline points="1178,970 1194,970 1194,906 1162,906 1162,922 1178,922" />
    <polyline points="1162,922 1130,922 1130,906 1114,906" />
    <polyline points="1114,954 1130,954 1130,1034" />
    <polyline points="1130,1002 1146,1002 1146,986" />
    <polyline points="1082,1018 1066,1018 1066,1050 1050,1050 1050,1082" />
    <polyline points="1050,1066 1066,1066 1066,1082 1082,1082" />
    <polyline points="1082,1098 1098,1098 1098,1082 1114,1082 1114,1034 1082,1034" />
    <polyline points="1098,1034 1098,1050 1082,1050 1082,1066 1098,1066" />
    <polyline points="1082,1130 1082,1146 1098,1146 1098,1114 1130,1114 1130,1130 1114,1130" />
    <polyline points="1098,1146 1098,1178 1066,1178 1066,1194 1130,1194 1130,1146 1114,1146 1114,1178" />
    <polyline points="1082,1178 1082,1162 1066,1162" />
    <polyline points="954,1146 954,1162 986,1162 986,1194" />
    <polyline points="986,1178 1002,1178 1002,1194 1050,1194" />
    <polyline points="954,1146 954,1130 970,1130 970,1098 1002,1098" />
    <polyline points="858,1194 858,1178 874,1178 874,1146 890,1146 890,1162" />
    <polyline points="842,1194 842,1178" />
    <polyline points="842,1050 810,1050 810,1066 794,1066 794,1082 778,1082 778,1114 794,1114 794,1130 810,1130 810,1146 778,1146 778,1162 762,1162 762,1194" />
    <polyline points="762,1178 778,1178 778,1194 810,1194" />
    <polyline points="794,1194 794,1178 810,1178 810,1162 794,1162" />
    <polyline points="778,1098 810,1098 810,1114 826,1114 826,1146 842,1146 842,1098 826,1098 826,1066" />
    <polyline points="826,1082 810,1082" />
    <polyline points="794,1066 794,1050 778,1050 778,1066" />
    <polyline points="778,1018 778,1034 762,1034 762,1146" />
    <polyline points="762,1130 778,1130" />
    <polyline points="778,1018 778,986" />
    <polyline points="714,1098 746,1098 746,1034" />
    <polyline points="746,1066 730,1066 730,1082" />
    <polyline points="714,1114 682,1114 682,1098 666,1098 666,1146 698,1146 698,1130 682,1130" />
    <polyline points="666,1098 666,1066 650,1066 650,1114" />
    <polyline points="650,1082 634,1082 634,1130 650,1130 650,1162 698,1162 698,1178" />
    <polyline points="634,1114 618,1114 618,1162 634,1162 634,1146" />
    <polyline points="634,1098 586,1098 586,1066 570,1066" />
    <polyline points="586,1066 602,1066" />
    <polyline points="586,1082 618,1082 618,1034 666,1034 666,1002 682,1002 682,986 634,986 634,970 682,970 682,954 698,954 698,1018 714,1018 714,1034 698,1034 698,1066" />
    <polyline points="698,1050 682,1050 682,1082" />
    <polyline points="650,986 650,1002 618,1002 618,1018 650,1018" />
    <polyline points="618,1018 586,1018 586,1034 602,1034 602,1050 570,1050 570,970" />
    <polyline points="570,986 586,986 586,954 618,954 618,986 602,986 602,1002 586,1002" />
    <polyline points="618,970 602,970" />
    <polyline points="682,1002 682,1034" />
    <polyline points="634,1082 634,1050 666,1050" />
    <polyline points="650,1178 650,1194 666,1194" />
    <polyline points="650,1194 618,1194" />
    <polyline points="554,1130 538,1130 538,1050 522,1050 522,1034 554,1034 554,970 538,970 538,1018" />
    <polyline points="538,1098 506,1098 506,1018 522,1018 522,1002 474,1002 474,1018 490,1018" />
    <polyline points="490,1002 490,986 474,986 474,970 490,970 490,954 474,954 474,938 506,938 506,970 522,970 522,986 506,986" />
    <polyline points="506,954 570,954 570,922 538,922 538,906 522,906 522,858 490,858 490,810 506,810 506,794 474,794" />
    <polyline points="490,826 522,826 522,842 506,842" />
    <polyline points="490,826 474,826 474,810 458,810 458,858 442,858 442,810 426,810 426,826 410,826 410,842 426,842 426,874 442,874 442,906 458,906 458,938" />
    <polyline points="458,922 426,922 426,890" />
    <polyline points="442,890 458,890 458,874 474,874 474,842" />
    <polyline points="426,858 362,858 362,842 346,842 346,874 410,874 410,954 426,954 426,938 442,938 442,954 458,954 458,970 426,970 426,1002" />
    <polyline points="410,954 394,954" />
    <polyline points="378,858 378,842 394,842 394,810 378,810 378,826" />
    <polyline points="394,810 410,810" />
    <polyline points="458,810 458,778 506,778" />
    <polyline points="490,778 490,762 506,762 506,746 538,746 538,778 554,778 554,794 538,794 538,810 522,810 522,762" />
    <polyline points="522,746 522,730 538,730 538,714 522,714" />
    <polyline points="554,922 554,938 522,938 522,922 474,922 474,890" />
    <polyline points="506,922 506,906 490,906 490,874 506,874 506,890" />
    <polyline points="506,1034 458,1034 458,1050 490,1050 490,1098 474,1098" />
    <polyline points="490,1082 458,1082 458,1114 442,1114 442,1066 426,1066 426,1050 394,1050 394,1066 410,1066 410,1082 426,1082 426,1114" />
    <polyline points="474,1050 474,1066 458,1066" />
    <polyline points="458,1034 458,986 442,986 442,1018" />
    <polyline points="506,1066 522,1066 522,1082" />
    <polyline points="538,1114 522,1114 522,1130" />
    <polyline points="570,1162 586,1162 586,1146 570,1146" />
    <polyline points="442,1178 506,1178 506,1194 522,1194 522,1162 474,1162 474,1146 490,1146 490,1130" />
    <polyline points="442,1194 490,1194" />
    <polyline points="426,1194 410,1194 410,1178 378,1178 378,1194 362,1194 362,1162 330,1162 330,1146 282,1146 282,1162 314,1162 314,1178 282,1178 282,1194 346,1194 346,1178 330,1178" />
    <polyline points="378,1178 378,1162" />
    <polyline points="394,1178 394,1162 410,1162 410,1146 362,1146 362,1130 346,1130 346,1146" />
    <polyline points="394,1178 394,1194" />
    <polyline points="410,1114 410,1098" />
    <polyline points="394,1114 394,1082" />
    <polyline points="346,1066 346,986" />
    <polyline points="346,1002 330,1002 330,986 298,986 298,970 282,970 282,986 266,986 266,1018 250,1018 250,1034 234,1034 234,1050 266,1050 266,1034 282,1034 282,1050 298,1050 298,1018 282,1018 282,1002 314,1002 314,1018 330,1018 330,1050 314,1050 314,1034" />
    <polyline points="314,986 314,970 362,970 362,986 378,986 378,1002 394,1002 394,1034 442,1034 442,1050" />
    <polyline points="426,1034 426,1018 410,1018 410,986 394,986 394,970 378,970 378,954 362,954 362,922" />
    <polyline points="362,938 346,938 346,954 330,954 330,938" />
    <polyline points="394,970 410,970" />
    <polyline points="394,1034 362,1034" />
    <polyline points="378,1034 378,1018 362,1018 362,1002" />
    <polyline points="314,1082 314,1066" />
    <polyline points="298,1082 266,1082 266,1098 234,1098 234,1114 218,1114 218,1130 250,1130 250,1114 266,1114 266,1130 330,1130 330,1098 282,1098 282,1114 314,1114" />
    <polyline points="138,1082 154,1082 154,1050" />
    <polyline points="138,1082 138,1066" />
    <polyline points="106,1066 106,1082 90,1082 90,1146 106,1146 106,1130 154,1130 154,1146 122,1146" />
    <polyline points="90,1146 74,1146 74,1130 58,1130 58,1114 74,1114 74,1082 58,1082 58,1098 10,1098 10,1114 42,1114 42,1130 10,1130 10,1162 42,1162 42,1194 74,1194 74,1178 58,1178" />
    <polyline points="42,1194 10,1194 10,1178 26,1178" />
    <polyline points="26,1130 26,1146 58,1146 58,1162 90,1162 90,1194 170,1194 170,1162 138,1162" />
    <polyline points="154,1162 154,1178 122,1178 122,1162 106,1162 106,1178" />
    <polyline points="170,1162 186,1162 186,1114 170,1114 170,1146" />
    <polyline points="186,1114 202,1114" />
    <polyline points="186,1130 202,1130 202,1146 266,1146 266,1194" />
    <polyline points="250,1146 250,1194 218,1194 218,1162 202,1162 202,1178 186,1178 186,1194 202,1194" />
    <polyline points="234,1194 234,1162" />
    <polyline points="10,1098 10,1018 26,1018 26,986 10,986 10,1002" />
    <polyline points="10,986 10,970 26,970 26,954 42,954 42,938 26,938 26,922 42,922 42,906 58,906 58,874 42,874 42,890 10,890 10,874 26,874" />
    <polyline points="26,890 26,906 10,906 10,954" />
    <polyline points="42,954 42,1034 26,1034" />
    <polyline points="90,1050 138,1050 138,1034 122,1034" />
    <polyline points="74,1034 58,1034 58,1050 26,1050 26,1082 42,1082 42,1066 74,1066" />
    <polyline points="106,986 106,1002 74,1002" />
    <polyline points="122,986 122,1002 170,1002 170,986 154,986 154,970 186,970 186,1050 218,1050 218,1066 234,1066" />
    <polyline points="186,1050 170,1050 170,1066 202,1066 202,1082" />
    <polyline points="186,1034 154,1034 154,1018 106,1018 106,1034 90,1034 90,1018" />
    <polyline points="170,1034 170,1018" />
    <polyline points="186,1018 202,1018 202,1034 218,1034" />
    <polyline points="106,938 106,970 122,970" />
    <polyline points="122,890 138,890 138,874" />
    <polyline points="106,858 154,858 154,922 170,922 170,890 186,890" />
    <polyline points="170,906 202,906 202,922 218,922 218,938 202,938 202,954 250,954 250,970 234,970 234,986 202,986 202,1002 218,1002 218,1018 234,1018 234,1002 250,1002 250,986" />
    <polyline points="202,986 202,970 218,970" />
    <polyline points="202,922 186,922 186,938 154,938 154,954 186,954" />
    <polyline points="154,922 138,922 138,938" />
    <polyline points="154,906 138,906" />
    <polyline points="138,746 154,746 154,794 170,794 170,778" />
    <polyline points="122,730 122,714 106,714 106,698 90,698 90,746 58,746" />
    <polyline points="90,714 74,714 74,730" />
    <polyline points="74,714 74,698 58,698 58,730 26,730 26,746 42,746 42,762 74,762 74,778 90,778 90,762 122,762 122,794 90,794 90,810 26,810 26,842 58,842 58,826 42,826" />
    <polyline points="58,826 74,826 74,842 90,842 90,826" />
    <polyline points="42,842 42,858 58,858" />
    <polyline points="42,858 10,858 10,778 26,778 26,762 10,762 10,698 26,698 26,714 42,714 42,682 74,682 74,634 90,634 90,650 138,650 138,634 154,634 154,618 122,618 122,634 106,634 106,602 74,602 74,618 90,618" />
    <polyline points="74,618 58,618 58,602" />
    <polyline points="74,602 74,586 42,586 42,618 26,618 26,634 10,634 10,458 26,458" />
    <polyline points="10,474 26,474 26,506 42,506 42,522 74,522 74,538 106,538 106,522 90,522" />
    <polyline points="106,538 106,554 74,554 74,570 42,570 42,554 58,554 58,538 26,538 26,522" />
    <polyline points="58,522 58,490 42,490 42,474 58,474 58,458 42,458 42,426 58,426 58,442 74,442 74,426 90,426 90,410 58,410 58,378 42,378" />
    <polyline points="90,426 90,442 122,442 122,426 138,426 138,442 154,442 154,394 186,394 186,378 170,378 170,362 202,362 202,346 330,346 330,330 346,330 346,314 330,314" />
    <polyline points="266,346 266,330 314,330 314,298 298,298 298,314" />
    <polyline points="250,346 250,394 266,394 266,410 282,410 282,394 298,394 298,378 314,378 314,362 282,362 282,378 266,378 266,362" />
    <polyline points="314,362 330,362 330,378" />
    <polyline points="250,362 218,362 218,378 234,378 234,426 250,426 250,410" />
    <polyline points="234,426 202,426" />
    <polyline points="186,362 186,330 170,330 170,346 138,346 138,330 154,330 154,314 90,314 90,362 106,362 106,330 122,330 122,362 154,362 154,378 122,378 122,394 138,394 138,410 106,410 106,426" />
    <polyline points="154,314 186,314 186,298 250,298 250,282 282,282 282,314 266,314 266,298" />
    <polyline points="218,298 218,282 186,282 186,266 122,266" />
    <polyline points="138,266 138,282 154,282" />
    <polyline points="170,266 170,298 122,298 122,282 106,282 106,298 90,298 90,282 74,282 74,330 58,330 58,346 74,346" />
    <polyline points="58,330 58,314 26,314 26,330 10,330 10,346 42,346 42,330" />
    <polyline points="10,330 10,266 26,266 26,282 42,282 42,218 74,218" />
    <polyline points="58,218 58,250 74,250 74,234 106,234" />
    <polyline points="42,234 26,234 26,250 10,250 10,202 26,202 26,218" />
    <polyline points="42,282 42,298 26,298" />
    <polyline points="74,298 58,298 58,266 106,266 106,250 90,250" />
    <polyline points="106,250 122,250 122,218 154,218 154,186 122,186 122,154 106,154 106,170" />
    <polyline points="122,170 138,170" />
    <polyline points="154,186 170,186 170,170 154,170 154,154 138,154 138,90 122,90 122,122" />
    <polyline points="122,106 106,106 106,90 90,90 90,106 58,106 58,90 42,90 42,74 58,74 58,58 74,58 74,90" />
    <polyline points="74,74 90,74 90,58" />
    <polyline points="122,90 122,74 106,74 106,42 154,42 154,58 138,58 138,74 154,74 154,122 170,122 170,106 202,106 202,90 218,90 218,106 234,106 234,74 250,74 250,58 218,58 218,74 186,74 186,90 170,90 170,58 202,58 202,42 218,42" />
    <polyline points="250,58 282,58 282,26 266,26 266,42 234,42 234,26 250,26 250,10 186,10" />
    <polyline points="218,10 218,26 186,26 186,42 170,42 170,10 138,10" />
    <polyline points="170,26 122,26 122,10 42,10 42,26 26,26 26,10 10,10 10,42 26,42 26,58 10,58 10,90 26,90 26,74" />
    <polyline points="106,10 106,26 90,26 90,42 74,42 74,26 58,26 58,42 42,42 42,58" />
    <polyline points="250,10 282,10" />
    <polyline points="282,58 282,74 266,74" />
    <polyline points="106,58 122,58" />
    <polyline points="138,138 218,138 218,154 234,154 234,122 186,122" />
    <polyline points="234,122 250,122 250,170 186,170 186,186 202,186" />
    <polyline points="218,154 170,154" />
    <polyline points="138,138 106,138 106,122 42,122 42,154 10,154 10,186 42,186 42,202 90,202 90,218 106,218 106,186 90,186 90,154 74,154 74,186 58,186 58,170 26,170" />
    <polyline points="10,154 10,138 26,138 26,122 10,122 10,106 42,106" />
    <polyline points="90,122 90,138 58,138 58,154" />
    <polyline points="154,202 122,202" />
    <polyline points="138,218 138,234 154,234 154,250 138,250" />
    <polyline points="186,266 250,266 250,250 266,250 266,234 250,234 250,218 234,218 234,186 218,186 218,202 202,202 202,250 170,250 170,218 186,218 186,202 170,202" />
    <polyline points="202,234 186,234" />
    <polyline points="202,218 218,218 218,234 234,234 234,250 218,250" />
    <polyline points="250,218 266,218" />
    <polyline points="218,282 234,282" />
    <polyline points="202,298 202,330 218,330 218,314 250,314 250,330 234,330" />
    <polyline points="186,378 202,378 202,394 218,394 218,410 186,410 186,442 170,442 170,410" />
    <polyline points="154,442 154,458 170,458 170,474 186,474 186,458 202,458 202,442 218,442 218,474 202,474 202,490 218,490" />
    <polyline points="218,458 234,458 234,442 250,442 250,458 266,458 266,474 234,474 234,490 266,490" />
    <polyline points="170,474 154,474 154,490 186,490 186,506 138,506 138,538 154,538 154,522 186,522" />
    <polyline points="42,442 10,442" />
    <polyline points="26,442 26,410 42,410 42,394 26,394 26,362 74,362 74,394 90,394 90,378 106,378 106,394" />
    <polyline points="26,426 10,426 10,362" />
    <polyline points="58,458 90,458" />
    <polyline points="26,618 26,554" />
    <polyline points="122,618 122,570 106,570 106,586 90,586 90,570" />
    <polyline points="122,602 154,602 154,586 138,586 138,570" />
    <polyline points="138,650 138,666 122,666" />
    <polyline points="74,666 26,666 26,682 10,682 10,650 58,650 58,634 42,634" />
    <polyline points="10,794 42,794 42,778 58,778" />
    <polyline points="58,810 58,794 74,794" />
    <polyline points="122,778 106,778" />
    <polyline points="90,698 90,666 106,666 106,682 122,682 122,698 138,698 138,682 170,682 170,698 202,698 202,682 218,682 218,698 266,698 266,682 234,682 234,666 218,666 218,650 154,650 154,666 202,666" />
    <polyline points="186,666 186,682" />
    <polyline points="170,650 170,634 186,634 186,586 202,586 202,618 218,618 218,554 202,554 202,570 186,570 186,554 170,554 170,538 234,538 234,506 202,506 202,522 218,522" />
    <polyline points="218,570 234,570 234,554" />
    <polyline points="186,602 170,602 170,618" />
    <polyline points="170,602 170,570 154,570 154,554 122,554 122,506 74,506" />
    <polyline points="106,506 106,490 74,490 74,474 106,474 106,458 122,458 122,490 138,490 138,458" />
    <polyline points="218,650 250,650 250,634 202,634" />
    <polyline points="234,666 266,666 266,650" />
    <polyline points="154,682 154,698" />
    <polyline points="170,730 170,714 234,714 234,730 218,730" />
    <polyline points="218,762 202,762" />
    <polyline points="218,778 186,778 186,794 202,794" />
    <polyline points="186,778 186,762 170,762 170,746 186,746" />
    <polyline points="202,858 218,858 218,874" />
    <polyline points="186,858 186,842 170,842 170,826 186,826 186,810 154,810 154,842" />
    <polyline points="250,922 234,922 234,938" />
    <polyline points="266,906 282,906 282,890 314,890 314,906 346,906 346,922 314,922 314,954 298,954" />
    <polyline points="282,906 282,922 298,922 298,906" />
    <polyline points="298,922 298,938 282,938 282,954 266,954 266,970" />
    <polyline points="250,778 250,762 234,762 234,746 250,746 250,730 266,730 266,714 250,714" />
    <polyline points="298,778 298,794 314,794" />
    <polyline points="298,762 266,762 266,746 298,746 298,714" />
    <polyline points="298,730 282,730 282,698 314,698 314,682 282,682 282,650 298,650 298,618 266,618 266,634 282,634" />
    <polyline points="298,682 298,666 346,666 346,650 362,650" />
    <polyline points="346,666 346,698 362,698 362,730 346,730 346,714 314,714 314,730 330,730" />
    <polyline points="330,666 330,634 362,634 362,618 394,618 394,634 378,634 378,650 394,650 394,666 362,666 362,682" />
    <polyline points="378,618 378,602 362,602 362,586 410,586 410,570 378,570 378,554 394,554 394,506 346,506 346,458 330,458 330,426 346,426 346,442 362,442 362,410 346,410" />
    <polyline points="394,538 426,538 426,522 410,522 410,506 442,506" />
    <polyline points="378,602 394,602" />
    <polyline points="330,650 314,650 314,618 346,618 346,586 314,586" />
    <polyline points="330,586 330,602 298,602" />
    <polyline points="314,682 330,682 330,698" />
    <polyline points="314,762 314,778 330,778 330,794 346,794 346,810" />
    <polyline points="346,762 362,762 362,746 346,746" />
    <polyline points="378,778 394,778 394,762 410,762 410,778 426,778 426,762" />
    <polyline points="410,746 410,730 442,730 442,682 378,682 378,698 426,698 426,714 410,714" />
    <polyline points="458,746 458,762 474,762" />
    <polyline points="458,762 442,762 442,794 362,794 362,826 314,826" />
    <polyline points="330,826 330,810 298,810 298,826 250,826" />
    <polyline points="282,826 282,842 330,842 330,890 362,890 362,906 394,906 394,890 378,890" />
    <polyline points="378,906 378,922 394,922 394,938 378,938" />
    <polyline points="314,842 314,874 298,874 298,858" />
    <polyline points="458,666 458,634 442,634" />
    <polyline points="490,650 490,666" />
    <polyline points="522,650 522,682" />
    <polyline points="522,666 506,666 506,682 474,682 474,698 490,698 490,714 474,714 474,746 490,746 490,730 506,730 506,698 538,698 538,666" />
    <polyline points="538,650 554,650 554,634" />
    <polyline points="506,618 442,618 442,602 410,602 410,666 442,666 442,650 426,650" />
    <polyline points="410,634 426,634 426,618" />
    <polyline points="426,602 426,554 410,554" />
    <polyline points="458,618 458,602 474,602 474,570 442,570 442,554 474,554 474,538 490,538 490,506 506,506 506,554 490,554" />
    <polyline points="458,570 458,586 442,586" />
    <polyline points="570,538 570,522 554,522 554,538" />
    <polyline points="586,538 586,586" />
    <polyline points="602,506 602,474" />
    <polyline points="602,490 618,490 618,474 634,474 634,490" />
    <polyline points="586,474 586,490" />
    <polyline points="602,442 618,442 618,426 634,426 634,410 618,410 618,394 586,394 586,346 618,346 618,330 538,330" />
    <polyline points="570,330 570,378 554,378 554,346 506,346 506,362 538,362 538,410 522,410 522,378 490,378 490,362 458,362 458,378 474,378 474,394 506,394 506,410 474,410 474,426 490,426" />
    <polyline points="474,362 474,346 490,346 490,314 506,314 506,282 522,282 522,330 506,330" />
    <polyline points="618,346 618,378 602,378 602,362" />
    <polyline points="618,394 634,394" />
    <polyline points="618,442 618,458" />
    <polyline points="522,426 522,474 506,474 506,490 538,490 538,458" />
    <polyline points="538,474 554,474 554,506 522,506" />
    <polyline points="506,490 474,490 474,522" />
    <polyline points="522,458 490,458 490,474 410,474 410,490 394,490" />
    <polyline points="426,474 426,490 458,490 458,522 442,522 442,538 458,538" />
    <polyline points="442,426 426,426" />
    <polyline points="426,458 474,458" />
    <polyline points="394,458 394,474 378,474 378,490 362,490 362,458" />
    <polyline points="394,458 394,426 410,426 410,442" />
    <polyline points="394,362 394,346 378,346 378,362 346,362 346,378 378,378 378,394 330,394 330,410 298,410" />
    <polyline points="314,410 314,394" />
    <polyline points="314,410 314,442 298,442 298,426 266,426 266,442 282,442 282,490 314,490 314,506 330,506 330,474 298,474 298,458 314,458" />
    <polyline points="298,490 298,506 250,506 250,522 266,522 266,538 282,538 282,522 330,522" />
    <polyline points="282,538 282,554 266,554 266,570 282,570 282,602 266,602 266,586 234,586 234,618 250,618 250,602" />
    <polyline points="282,586 298,586 298,570 314,570 314,554 298,554 298,538 330,538 330,570 346,570 346,522 362,522 362,570" />
    <polyline points="362,538 378,538 378,522" />
    <polyline points="266,570 250,570 250,538" />
    <polyline points="346,362 346,346 362,346" />
    <polyline points="410,362 410,378 426,378 426,410 458,410 458,394 442,394 442,362" />
    <polyline points="426,394 410,394 410,410" />
    <polyline points="426,346 410,346" />
    <polyline points="394,330 362,330 362,298 330,298 330,282 298,282 298,266 330,266 330,234 346,234 346,218 330,218 330,202 250,202 250,186 266,186 266,106 250,106 250,90 298,90 298,58 314,58 314,42 298,42 298,10 314,10 314,26 330,26 330,10 346,10" />
    <polyline points="298,74 330,74 330,42" />
    <polyline points="330,58 346,58 346,74 362,74 362,58 378,58 378,90 362,90 362,106 314,106 314,90 346,90" />
    <polyline points="266,170 282,170 282,186" />
    <polyline points="282,202 282,234 314,234 314,218 298,218" />
    <polyline points="330,250 378,250" />
    <polyline points="346,250 346,266 362,266 362,282 346,282" />
    <polyline points="330,250 282,250 282,266 266,266" />
    <polyline points="394,314 378,314" />
    <polyline points="426,298 410,298 410,282 394,282 394,266 378,266 378,298 394,298" />
    <polyline points="442,266 426,266 426,218 410,218 410,234" />
    <polyline points="426,234 458,234 458,218 442,218 442,202 426,202 426,170 378,170" />
    <polyline points="410,170 410,154 378,154 378,106" />
    <polyline points="378,122 282,122 282,154 298,154 298,186 330,186" />
    <polyline points="314,186 314,170 330,170 330,154 314,154 314,138 298,138" />
    <polyline points="298,122 298,106 282,106" />
    <polyline points="330,122 330,138 346,138 346,154 362,154 362,202 378,202 378,186 394,186 394,218 362,218 362,234 394,234 394,250 410,250 410,266" />
    <polyline points="394,202 410,202 410,186" />
    <polyline points="362,202 346,202 346,170" />
    <polyline points="378,138 362,138" />
    <polyline points="490,154 490,170 474,170 474,154 426,154 426,138 394,138 394,42 410,42 410,26 378,26 378,42 346,42 346,26 362,26 362,10 410,10" />
    <polyline points="458,154 458,170 442,170 442,186 458,186 458,202" />
    <polyline points="458,106 410,106 410,90 442,90 442,74 410,74 410,58" />
    <polyline points="426,74 426,10 442,10 442,42 458,42 458,58 442,58" />
    <polyline points="442,26 458,26 458,10" />
    <polyline points="442,74 458,74" />
    <polyline points="458,106 458,138 442,138" />
    <polyline points="458,122 410,122" />
    <polyline points="522,10 474,10 474,42 490,42 490,26" />
    <polyline points="538,42 522,42 522,90 538,90 538,74" />
    <polyline points="522,90 506,90 506,74 490,74 490,122" />
    <polyline points="586,10 586,26 570,26 570,58" />
    <polyline points="570,42 586,42 586,74 554,74 554,106 506,106 506,122 538,122 538,154 522,154 522,138 506,138" />
    <polyline points="554,90 586,90 586,122 618,122 618,106 602,106 602,74 618,74 618,58 650,58" />
    <polyline points="634,58 634,106 682,106 682,122 666,122" />
    <polyline points="634,90 618,90" />
    <polyline points="634,74 650,74 650,90 666,90 666,58 682,58 682,42 602,42 602,58" />
    <polyline points="618,42 618,10 650,10 650,26 634,26" />
    <polyline points="602,122 602,138 634,138 634,122 650,122 650,138 730,138 730,106 746,106 746,122 762,122 762,106 794,106 794,74 762,74 762,58 794,58 794,42 746,42 746,90 778,90" />
    <polyline points="794,90 810,90 810,106 826,106 826,74 810,74 810,42 826,42 826,10 794,10 794,26 778,26 778,10 762,10 762,26 746,26 746,10 666,10 666,26 698,26" />
    <polyline points="826,26 810,26" />
    <polyline points="826,42 826,58" />
    <polyline points="762,122 762,138 746,138" />
    <polyline points="698,138 698,154 714,154 714,170 698,170" />
    <polyline points="698,138 698,106 714,106 714,90 682,90 682,74 714,74 714,58 730,58 730,26 714,26 714,42 698,42 698,58" />
    <polyline points="730,58 730,90" />
    <polyline points="714,106 714,122" />
    <polyline points="666,138 666,154 682,154 682,170 666,170 666,186 634,186 634,170 650,170 650,154 634,154" />
    <polyline points="570,90 570,122 554,122 554,138" />
    <polyline points="602,10 602,26" />
  </g>
</svg>
